<svg width="161" height="50" viewBox="0 0 161 50" fill="none" xmlns="http://www.w3.org/2000/svg">
<path d="M75.55 19.45V31.4C75.55 33.25 75.025 34.675 73.975 35.675C72.9417 36.675 71.5417 37.175 69.775 37.175C67.925 37.175 66.4417 36.65 65.325 35.6C64.2083 34.55 63.65 33.0583 63.65 31.125H67.9C67.9 31.8583 68.05 32.4167 68.35 32.8C68.65 33.1667 69.0833 33.35 69.65 33.35C70.1667 33.35 70.5667 33.1833 70.85 32.85C71.1333 32.5167 71.275 32.0333 71.275 31.4V19.45H75.55ZM87.8531 37.2C86.4865 37.2 85.2531 36.9083 84.1531 36.325C83.0698 35.7417 82.2115 34.9083 81.5781 33.825C80.9615 32.7417 80.6531 31.475 80.6531 30.025C80.6531 28.5917 80.9698 27.3333 81.6031 26.25C82.2365 25.15 83.1031 24.3083 84.2031 23.725C85.3031 23.1417 86.5365 22.85 87.9031 22.85C89.2698 22.85 90.5031 23.1417 91.6031 23.725C92.7031 24.3083 93.5698 25.15 94.2031 26.25C94.8365 27.3333 95.1531 28.5917 95.1531 30.025C95.1531 31.4583 94.8281 32.725 94.1781 33.825C93.5448 34.9083 92.6698 35.7417 91.5531 36.325C90.4531 36.9083 89.2198 37.2 87.8531 37.2ZM87.8531 33.5C88.6698 33.5 89.3615 33.2 89.9281 32.6C90.5115 32 90.8031 31.1417 90.8031 30.025C90.8031 28.9083 90.5198 28.05 89.9531 27.45C89.4031 26.85 88.7198 26.55 87.9031 26.55C87.0698 26.55 86.3781 26.85 85.8281 27.45C85.2781 28.0333 85.0031 28.8917 85.0031 30.025C85.0031 31.1417 85.2698 32 85.8031 32.6C86.3531 33.2 87.0365 33.5 87.8531 33.5ZM104.196 25.025C104.596 24.375 105.171 23.85 105.921 23.45C106.671 23.05 107.529 22.85 108.496 22.85C109.646 22.85 110.688 23.1417 111.621 23.725C112.554 24.3083 113.288 25.1417 113.821 26.225C114.371 27.3083 114.646 28.5667 114.646 30C114.646 31.4333 114.371 32.7 113.821 33.8C113.288 34.8833 112.554 35.725 111.621 36.325C110.688 36.9083 109.646 37.2 108.496 37.2C107.513 37.2 106.654 37.0083 105.921 36.625C105.188 36.225 104.613 35.7 104.196 35.05V37H99.9211V18.5H104.196V25.025ZM110.296 30C110.296 28.9333 109.996 28.1 109.396 27.5C108.813 26.8833 108.088 26.575 107.221 26.575C106.371 26.575 105.646 26.8833 105.046 27.5C104.463 28.1167 104.171 28.9583 104.171 30.025C104.171 31.0917 104.463 31.9333 105.046 32.55C105.646 33.1667 106.371 33.475 107.221 33.475C108.071 33.475 108.796 33.1667 109.396 32.55C109.996 31.9167 110.296 31.0667 110.296 30ZM123.664 18.5V37H119.389V18.5H123.664ZM143.512 23.05L134.762 43.625H130.162L133.362 36.525L127.687 23.05H132.462L135.687 31.775L138.887 23.05H143.512Z" fill="#00BFA6"/>
<rect width="50" height="50" rx="10" fill="#00BFA6"/>
<path d="M26.0039 9.5625H31.8633V29.25C31.8633 31.0599 31.4596 32.6615 30.6523 34.0547C29.8581 35.4349 28.7318 36.5026 27.2734 37.2578C25.8151 38.013 24.168 38.3906 22.332 38.3906C19.3242 38.3906 16.9805 37.6289 15.3008 36.1055C13.6211 34.569 12.7812 32.401 12.7812 29.6016H18.6797C18.6797 30.9948 18.9727 32.0234 19.5586 32.6875C20.1445 33.3516 21.069 33.6836 22.332 33.6836C23.4518 33.6836 24.3438 33.2995 25.0078 32.5312C25.6719 31.763 26.0039 30.6693 26.0039 29.25V9.5625Z" fill="white"/>
</svg>
